<svg width="177" height="28" viewBox="0 0 177 28" fill="none" xmlns="http://www.w3.org/2000/svg">
<g clip-path="url(#clip0_203_68)">
<path d="M61.3532 20.911C59.4132 20.911 57.8333 20.3298 56.6218 19.1674C55.4144 18.005 54.8086 16.4579 54.8086 14.5546C54.8086 12.6514 55.3898 11.2189 56.5522 10.0114C57.7146 8.804 59.2372 8.19824 61.1077 8.19824C62.9782 8.19824 64.5376 8.79172 65.6509 9.9664C66.7682 11.1411 67.3249 12.6146 67.3249 14.395C67.3249 14.8821 67.3003 15.2545 67.2553 15.5124H57.8988C58.0052 16.3392 58.3531 16.9981 58.9466 17.5016C59.5278 18.0009 60.3546 18.2465 61.3983 18.2465C62.794 18.2465 63.7681 17.7226 64.3288 16.6543L67.1653 17.4893C66.7682 18.3938 66.0602 19.196 65.0492 19.8837C64.0382 20.5795 62.8063 20.9192 61.3532 20.9192V20.911ZM57.9029 13.5314H64.2593C64.1774 12.7742 63.8541 12.1357 63.2933 11.6241C62.7244 11.1124 61.9918 10.8587 61.0831 10.8587C60.1745 10.8587 59.4787 11.1247 58.8975 11.6486C58.3163 12.1848 57.9929 12.811 57.8988 13.5314H57.9029Z" fill="black"/>
<path d="M75.3674 20.911C73.5174 20.911 71.9866 20.3052 70.7751 19.0733C69.5677 17.8536 68.9619 16.3433 68.9619 14.5301C68.9619 12.7169 69.5677 11.2189 70.7751 10.0073C71.9825 8.79991 73.5051 8.19415 75.3306 8.19415C76.8654 8.19415 78.167 8.59936 79.223 9.41386C80.279 10.2284 80.942 11.1329 81.2122 12.1439L78.2816 12.9788C78.1424 12.4427 77.7945 11.9679 77.2584 11.5709C76.7222 11.1738 76.0714 10.9774 75.3306 10.9774C74.3524 10.9774 73.5624 11.3253 72.9607 12.0129C72.355 12.7087 72.0562 13.5478 72.0562 14.5219C72.0562 15.496 72.3591 16.3351 72.973 17.0309C73.5788 17.739 74.3687 18.0869 75.3306 18.0869C76.0755 18.0869 76.714 17.9027 77.2584 17.5179C77.7945 17.1455 78.1424 16.6912 78.2816 16.1591L81.2122 16.9736C80.9338 18.0091 80.2831 18.9259 79.2353 19.7159C78.1875 20.5058 76.8982 20.9028 75.3633 20.9028L75.3674 20.911Z" fill="black"/>
<path d="M89.222 20.911C87.3638 20.911 85.8167 20.3052 84.597 19.0855C83.3772 17.8781 82.7715 16.3678 82.7715 14.5546C82.7715 12.7414 83.3772 11.2311 84.597 10.0237C85.8167 8.81628 87.3515 8.19824 89.2097 8.19824C91.0679 8.19824 92.6028 8.81219 93.8225 10.0237C95.0299 11.2311 95.648 12.7414 95.648 14.5546C95.648 16.3678 95.0299 17.8781 93.8102 19.0855C92.5905 20.3052 91.0557 20.911 89.2179 20.911H89.222ZM89.222 18.05C90.2207 18.05 91.0229 17.7226 91.6491 17.0636C92.2754 16.4128 92.5905 15.5779 92.5905 14.5546C92.5905 13.5314 92.2754 12.7046 91.6491 12.0456C91.0229 11.3949 90.2207 11.0592 89.222 11.0592C88.2233 11.0592 87.4088 11.3949 86.7826 12.0456C86.1564 12.7087 85.8412 13.5437 85.8412 14.5546C85.8412 15.5656 86.1564 16.4128 86.7826 17.0636C87.4088 17.7267 88.2233 18.05 89.222 18.05Z" fill="black"/>
<path d="M112.433 8.19825C113.886 8.19825 115.049 8.66484 115.908 9.56939C116.768 10.4862 117.197 11.7673 117.197 13.4168V20.5754H114.05V14.0798C114.05 12.1152 113.285 11.1288 111.75 11.1288C110.923 11.1288 110.297 11.4194 109.855 12.0006C109.413 12.5818 109.204 13.3963 109.204 14.44V20.5754H106.032V14.0798C106.032 12.1152 105.279 11.1288 103.777 11.1288C102.929 11.1288 102.279 11.4317 101.837 12.0252C101.395 12.6309 101.173 13.4659 101.173 14.5342V20.5795H98.0342V8.53387H101.173V9.96232C102.082 8.78763 103.265 8.19415 104.755 8.19415C106.384 8.19415 107.591 8.79991 108.369 10.0073C109.323 8.79991 110.669 8.19415 112.437 8.19415L112.433 8.19825Z" fill="black"/>
<path d="M125.38 20.911C123.694 20.911 122.277 20.3052 121.14 19.0855C120.002 17.8781 119.429 16.3678 119.429 14.5546C119.429 12.7414 119.998 11.2189 121.14 10.0114C122.277 8.804 123.698 8.19824 125.38 8.19824C127.062 8.19824 128.323 8.804 129.252 9.98687V8.53387H132.424V20.5754H129.252V19.0978C128.323 20.3052 127.033 20.911 125.38 20.911ZM125.928 18.0991C126.894 18.0991 127.705 17.7635 128.368 17.0882C129.019 16.4128 129.354 15.5656 129.354 14.5301C129.354 13.4945 129.019 12.68 128.368 12.0088C127.705 11.3457 126.89 11.0101 125.928 11.0101C124.966 11.0101 124.127 11.3457 123.497 11.9965C122.859 12.6596 122.543 13.5068 122.543 14.5301C122.543 15.5533 122.859 16.4374 123.497 17.1004C124.123 17.7758 124.938 18.0991 125.928 18.0991Z" fill="black"/>
<path d="M135.481 20.5754V8.53387H138.641V20.5754H135.481Z" fill="black"/>
<path d="M141.78 20.5754V3.20074H144.92V20.5754H141.78Z" fill="black"/>
<path d="M159.302 20.911C157.452 20.911 155.921 20.3052 154.71 19.0733C153.502 17.8536 152.896 16.3433 152.896 14.5301C152.896 12.7169 153.502 11.2189 154.71 10.0073C155.917 8.79991 157.44 8.19415 159.265 8.19415C160.8 8.19415 162.102 8.59936 163.158 9.41386C164.214 10.2284 164.877 11.1329 165.147 12.1439L162.216 12.9788C162.077 12.4427 161.729 11.9679 161.193 11.5709C160.657 11.1738 160.006 10.9774 159.261 10.9774C158.287 10.9774 157.493 11.3253 156.891 12.0129C156.285 12.7087 155.983 13.5478 155.983 14.5219C155.983 15.496 156.285 16.3351 156.899 17.0309C157.505 17.739 158.295 18.0869 159.257 18.0869C160.002 18.0869 160.64 17.9027 161.189 17.5179C161.721 17.1455 162.073 16.6912 162.212 16.1591L165.143 16.9736C164.864 18.0091 164.214 18.9259 163.166 19.7159C162.118 20.5058 160.829 20.9028 159.294 20.9028L159.302 20.911Z" fill="black"/>
<path d="M170.414 17.96H176.992V20.5754H166.231V18.578L172.612 11.1288H166.371V8.53796H176.771V10.5353L170.414 17.9641V17.96Z" fill="black"/>
<path d="M137.101 6.90896C138.139 6.90896 138.98 6.06785 138.98 5.03028C138.98 3.99272 138.139 3.15161 137.101 3.15161C136.064 3.15161 135.223 3.99272 135.223 5.03028C135.223 6.06785 136.064 6.90896 137.101 6.90896Z" fill="black"/>
<path d="M149.474 20.7391C150.512 20.7391 151.353 19.898 151.353 18.8604C151.353 17.8229 150.512 16.9818 149.474 16.9818C148.437 16.9818 147.596 17.8229 147.596 18.8604C147.596 19.898 148.437 20.7391 149.474 20.7391Z" fill="#59BC1C"/>
<path d="M0.783203 0.74492C1.25419 0.282415 1.8972 0 2.60573 0H39.3962C40.1088 0 40.7559 0.286508 41.2269 0.753106L20.8842 18.5411L0.783203 0.74492Z" fill="#3D942F"/>
<path d="M0 2.60314V25.401C0 26.8376 1.16724 28.0041 2.60478 28.0041H31.5686L0.782252 0.744934C0.298976 1.21563 0 1.87459 0 2.60314Z" fill="#A6E61F"/>
<path d="M42.0005 25.401V2.60313C42.0005 1.87868 41.7056 1.2238 41.2265 0.753113L20.8838 18.5412L31.5691 28.0041H39.3957C40.8333 28.0041 42.0005 26.8376 42.0005 25.401Z" fill="#59BC1C"/>
</g>
<defs>
<clipPath id="clip0_203_68">
<rect width="176.992" height="28" fill="white"/>
</clipPath>
</defs>
</svg>
