<svg width="90" height="19" viewBox="0 0 90 19" fill="none" xmlns="http://www.w3.org/2000/svg">
<path d="M55.4609 15.4534H51.9756V10.137H55.4609V15.4534ZM67.4053 15.4534H63.9209V10.137H67.4053V15.4534ZM50.5371 6.13599H41.3896V8.10376H48.9297V10.6526H41.3896V12.7727L41.3887 12.7737H50.7246V15.4426H37.9531V3.46704H50.5371V6.13599ZM84.1914 3.46704C87.2512 3.46704 89.6277 4.81888 89.6279 7.55591C89.6279 9.55745 88.3629 10.8233 86.4824 11.3704L90.0049 15.4426H85.9521L82.7891 11.6614H79.2676V15.4426H75.7959V3.46704H84.1914ZM29.5 12.637H36.6406V15.4417H26.0117V3.46704H29.5V12.637ZM62.5967 6.10767H58.9453V10.136H55.4609V6.10767H51.9678V3.44849H62.5967V6.10767ZM74.5371 3.44849V6.10767H70.8867V10.136H67.4014V6.10767H63.9082V3.44849H74.5371ZM79.25 9.13013H83.9346C85.1832 9.13007 86.0887 8.78776 86.0889 7.62524C86.0889 6.46252 85.1833 6.12042 83.9346 6.12036H79.25V9.13013Z" fill="#1F2937"/>
<path d="M4.73047 16.5615L2.36523 18.9268L0 16.5615L2.36523 14.1963L4.73047 16.5615ZM11.0898 13.4551L14.1953 16.5615L11.8301 18.9268L9.46387 16.5615L7.09863 18.9268L4.73145 16.5615L7.09863 14.1953L9.46387 11.8301L11.0898 13.4551ZM18.9268 16.5615L16.5605 18.9268L14.1953 16.5615L16.5605 14.1963L18.9268 16.5615ZM4.73047 11.8291L2.36523 14.1943L0 11.8291L2.36523 9.46387L4.73047 11.8291ZM18.9268 11.8291L16.5605 14.1943L14.1953 11.8291L16.5605 9.46387L18.9268 11.8291ZM11.8281 9.46387L9.46289 11.8291L7.09766 9.46387L9.46289 7.09863L11.8281 9.46387ZM4.73047 7.09766L2.36523 9.46289L0 7.09766L2.36523 4.73242L4.73047 7.09766ZM18.9268 7.09766L16.5615 9.46289L14.1953 7.09766L16.5615 4.73242L18.9268 7.09766ZM14.1953 2.36523L11.3975 5.16309L9.46387 7.09766L7.09863 4.73145L4.73145 2.36523L7.09863 0L9.46387 2.36523L11.8301 0L14.1953 2.36523ZM4.73047 2.36621L2.36523 4.73145L0 2.36621L2.36523 0.000976562L4.73047 2.36621ZM18.9268 2.36621L16.5615 4.73145L14.1953 2.36621L16.5615 0.000976562L18.9268 2.36621Z" fill="#EC104B"/>
</svg>
