<svg width="391" height="100" viewBox="0 0 391 100" fill="none" xmlns="http://www.w3.org/2000/svg">
<path d="M198.658 24.5069C194.15 21.9659 188.894 20.6954 182.903 20.6954C176.911 20.6954 171.655 21.9659 167.103 24.5069C162.561 27.0478 159.024 30.5918 156.525 35.161C154.003 39.7192 152.765 45.024 152.765 51.0755C152.765 57.1269 154.014 62.376 156.558 66.9341C159.08 71.5034 162.617 75.0474 167.136 77.5883C171.678 80.1293 176.922 81.3998 182.914 81.3998C188.906 81.3998 194.116 80.1293 198.635 77.5883C203.177 75.0474 206.703 71.5034 209.224 66.9341C211.746 62.376 213.018 57.0824 213.018 51.0755C213.018 45.0685 211.746 39.7192 209.224 35.161C206.703 30.5918 203.177 27.0478 198.658 24.5069ZM198.011 60.604C196.593 63.3233 194.585 65.4296 192.008 66.9119C189.43 68.4052 186.395 69.1519 182.914 69.1519C179.432 69.1519 176.386 68.4052 173.798 66.9119C171.209 65.4296 169.2 63.3233 167.772 60.604C166.344 57.8848 165.641 54.7086 165.641 51.0755C165.641 47.4423 166.344 44.2216 167.772 41.5134C169.2 38.8165 171.198 36.699 173.775 35.2056C176.353 33.7011 179.399 32.9433 182.914 32.9433C186.428 32.9433 189.43 33.7011 192.008 35.2056C194.585 36.699 196.593 38.8165 198.011 41.5134C199.439 44.2216 200.153 47.3978 200.153 51.0755C200.153 54.7532 199.439 57.8959 198.011 60.604ZM332.387 24.5069C327.879 21.9659 322.635 20.6954 316.643 20.6954C310.651 20.6954 305.384 21.9659 300.843 24.5069C296.291 27.0478 292.753 30.5918 290.254 35.161C287.744 39.7192 286.494 45.024 286.494 51.0755C286.494 57.1269 287.755 62.376 290.288 66.9341C292.809 71.5034 296.335 75.0474 300.876 77.5883C305.407 80.1293 310.651 81.3998 316.654 81.3998C322.657 81.3998 327.834 80.1293 332.376 77.5883C336.906 75.0474 340.432 71.5034 342.953 66.9341C345.475 62.376 346.747 57.0824 346.747 51.0755C346.747 45.0685 345.475 39.7192 342.953 35.161C340.432 30.5918 336.906 27.0478 332.387 24.5069ZM331.751 60.604C330.323 63.3233 328.325 65.4296 325.748 66.9119C323.159 68.4052 320.124 69.1519 316.654 69.1519C313.184 69.1519 310.126 68.4052 307.527 66.9119C304.938 65.4296 302.93 63.3233 301.501 60.604C300.084 57.8848 299.37 54.7086 299.37 51.0755C299.37 47.4423 300.084 44.2216 301.501 41.5134C302.93 38.8165 304.927 36.699 307.504 35.2056C310.082 33.7011 313.139 32.9433 316.654 32.9433C320.169 32.9433 323.159 33.7011 325.748 35.2056C328.325 36.699 330.323 38.8165 331.751 41.5134C333.168 44.2216 333.882 47.3978 333.882 51.0755C333.882 54.7532 333.168 57.8959 331.751 60.604ZM267.971 24.44C263.798 21.9436 258.889 20.6954 253.276 20.6954C248.043 20.6954 243.591 21.8656 239.942 24.1837C236.963 26.0782 234.575 28.7195 232.768 32.0517V21.8767H219.3V100H232.768V69.464C234.575 72.7962 236.952 75.4263 239.942 77.3208C243.591 79.6612 248.043 80.8091 253.276 80.8091C258.889 80.8091 263.798 79.5609 267.971 77.0311C272.156 74.5236 275.414 71.0019 277.757 66.4772C280.1 61.9637 281.283 56.7034 281.283 50.7188C281.283 44.7342 280.1 39.474 277.757 34.9604C275.414 30.4358 272.145 26.9252 267.971 24.44ZM266.186 60.1137C264.736 62.7995 262.694 64.8724 260.072 66.3435C257.449 67.8257 254.359 68.5612 250.81 68.5612C247.262 68.5612 244.171 67.8257 241.549 66.3435C238.916 64.8724 236.874 62.7995 235.435 60.1137C233.984 57.439 233.248 54.3185 233.248 50.7411C233.248 47.1637 233.973 43.9987 235.435 41.3351C236.874 38.6827 238.916 36.6098 241.549 35.1499C244.171 33.6788 247.262 32.9544 250.81 32.9544C254.359 32.9544 257.483 33.69 260.094 35.1499C262.705 36.6098 264.724 38.6827 266.186 41.3574C267.626 44.0321 268.362 47.1526 268.362 50.7411C268.362 54.3297 267.637 57.4501 266.186 60.1137ZM391 66.7781V80.2407H366.408V66.7781H391ZM366.397 0V66.7781H352.918V0H366.397ZM127.38 21.7096H149.607V35.1722H127.38V66.7893H113.79V0H127.38V21.7096ZM127.38 66.7781H147.152V80.2407H127.38V66.7781ZM80.3379 66.8004V80.263H60.2534V66.8004H80.3379ZM0 66.8004H20.0845V80.263H0V66.8004ZM0.0223161 50.1727V30.1126H20.0845V50.1727H0.0223161ZM60.2534 50.1727V30.1126H20.0845V13.4849H60.2534V30.1126H80.3044V50.1727H60.2534ZM20.0845 50.1727H60.2534V66.8004H20.0845V50.1727ZM0 13.4738V0.0222891H20.0845V13.4849L0 13.4738ZM80.3379 13.4738H60.2534V0.0222891H80.3379V13.4738Z" fill="black"/>
</svg>
